<svg width="138" height="151" viewBox="0 0 138 151" fill="none" xmlns="http://www.w3.org/2000/svg">
<path d="M75.7893 150.667C54.1156 150.667 36.2142 143.465 22.0852 129.061C7.95613 114.658 0.891602 96.8939 0.891602 75.7689C0.891602 54.5067 7.95613 36.7425 22.0852 22.4763C36.2142 8.07291 54.1156 0.871208 75.7893 0.871208C88.8209 0.871208 100.824 3.95765 111.798 10.1305C122.909 16.1663 131.551 24.3968 137.724 34.8221L113.238 49.0197C109.672 42.5725 104.596 37.5656 98.0117 33.999C91.4272 30.2953 84.0198 28.4434 75.7893 28.4434C61.7974 28.4434 50.4804 32.833 41.8384 41.6122C33.3335 50.3915 29.0811 61.777 29.0811 75.7689C29.0811 89.6236 33.3335 100.941 41.8384 109.72C50.4804 118.499 61.7974 122.889 75.7893 122.889C84.0198 122.889 91.4272 121.105 98.0117 117.539C104.733 113.835 109.809 108.828 113.238 102.518L137.724 116.716C131.551 127.141 122.978 135.44 112.004 141.613C101.03 147.649 88.9581 150.667 75.7893 150.667Z" fill="#F9F3FF"/>
</svg>
