<svg width="42" height="43" viewBox="0 0 42 43" fill="none" xmlns="http://www.w3.org/2000/svg">
<path d="M36.75 23.7249C31.7459 25.7483 26.3977 26.7853 21 26.7787C15.4297 26.7787 10.115 25.6937 5.25 23.7249M21 21.5287H21.0175M28 11.0287V7.52869C28 6.60043 27.6313 5.71019 26.9749 5.05381C26.3185 4.39744 25.4283 4.02869 24.5 4.02869H17.5C16.5717 4.02869 15.6815 4.39744 15.0251 5.05381C14.3687 5.71019 14 6.60043 14 7.52869V11.0287H28ZM8.75 35.5287H33.25C34.1783 35.5287 35.0685 35.1599 35.7249 34.5036C36.3813 33.8472 36.75 32.9569 36.75 32.0287V14.5287C36.75 13.6004 36.3813 12.7102 35.7249 12.0538C35.0685 11.3974 34.1783 11.0287 33.25 11.0287H8.75C7.82174 11.0287 6.9315 11.3974 6.27513 12.0538C5.61875 12.7102 5.25 13.6004 5.25 14.5287V32.0287C5.25 32.9569 5.61875 33.8472 6.27513 34.5036C6.9315 35.1599 7.82174 35.5287 8.75 35.5287Z" stroke="url(#paint0_linear_77_294)" stroke-width="2" stroke-linecap="round" stroke-linejoin="round"/>
<defs>
<linearGradient id="paint0_linear_77_294" x1="5.25" y1="4.02869" x2="36.75" y2="35.5287" gradientUnits="userSpaceOnUse">
<stop stop-color="#69E4A3"/>
<stop offset="0.5625" stop-color="#D2E66A"/>
<stop offset="1" stop-color="#FDE753"/>
</linearGradient>
</defs>
</svg>
