<svg width="444" height="653" viewBox="0 0 444 653" fill="none" xmlns="http://www.w3.org/2000/svg">
<path d="M76.7549 504.059C77.7605 483.387 79.8829 449.439 89.1844 432.721C91.0252 435.4 93.4388 434.949 95.1651 437.017C99.7916 442.559 104.108 449.175 108.577 455.043C111.262 458.57 113.635 464.1 112.08 469.276C109.584 477.584 109.139 483.236 108.712 492.012C108.284 500.786 110.028 510.017 110.305 518.847C110.548 526.58 109.901 534.039 109.85 541.766C109.799 549.29 110.679 556.645 108.531 563.342C107.137 567.691 103.204 572.579 100.415 575.201C94.2913 580.956 88.4936 588.097 83.0311 595.143C79.2839 599.977 77.2497 604.782 71.9794 606.321C69.4345 607.064 48.9569 615.049 53.8296 607.638C56.0935 604.194 57.1533 599.663 57.2345 594.877C57.363 587.305 57.0902 581.147 59.3734 574.087C63.0664 562.666 70.1835 552.717 75.2186 542.42C81.3526 529.875 76.0734 518.067 76.7549 504.059Z" fill="url(#paint0_linear_581_555)"/>
<path d="M384.327 501.508C390.893 490.399 402.054 472.353 414.221 466.895C414.963 469.154 417.039 469.905 417.857 471.776C420.052 476.789 421.697 482.272 423.674 487.401C424.862 490.481 425.239 494.552 422.543 496.792C418.214 500.386 416.281 503.353 413.494 508.069C410.707 512.784 409.547 518.656 407.313 523.694C405.358 528.106 402.76 531.998 400.567 536.284C398.432 540.458 397.097 544.926 393.498 547.768C391.16 549.612 386.624 550.704 383.641 551.007C377.093 551.671 370.422 553.244 364.048 554.902C359.676 556.041 356.695 557.875 352.01 556.543C349.748 555.9 330.983 551.844 336.983 549.736C339.769 548.756 341.886 546.671 343.284 544.035C345.495 539.867 346.989 536.319 350.798 533.331C356.96 528.498 365.478 525.908 372.41 522.259C380.857 517.813 379.878 509.034 384.327 501.508Z" fill="url(#paint1_linear_581_555)"/>
<path d="M197.164 284.037C196.018 278.225 193.255 269.854 193.255 263.701C194.116 263.701 195.68 265.54 196.299 266.602C197.748 269.086 198.531 272.335 199.944 274.852C200.915 276.581 201.229 278.919 201.936 280.91C202.866 283.533 204.431 286.18 205.844 288.066C207.691 290.529 210.02 291.909 211.932 294.318C214.209 297.186 215.947 301.006 217.606 304.889C219.812 310.046 221.392 315.442 223.92 320.23C227.047 326.152 229.566 332.92 232.714 338.794C235.491 343.976 238.556 349.059 242.409 351.749C245.195 353.695 247.26 355.672 249.662 358.711C257.073 368.088 266.373 373.023 275.179 377.275C283.383 381.237 291.276 386.44 299.53 390.166C302.832 391.657 305.978 392.995 309.338 393.904C312.068 394.643 314.768 396.147 317.23 398.288C321.588 402.078 322.971 410.552 326.851 415.111C330.391 419.272 335.596 419.016 339.628 420.912C343.593 422.777 347.517 424.357 351.616 425.102C358.431 426.34 365.361 425.2 372.172 426.263C379.463 427.399 386.451 432.207 393.78 433.417C398.421 434.184 403.278 432.581 407.873 433.804C409.461 434.227 408.001 435.05 407.534 435.705C406.552 437.084 405.827 438.896 405.317 440.863C405.019 442.013 401.896 443.168 401.127 444.085C399.496 446.031 396.597 446.438 394.644 446.438C391.84 446.438 389.362 448.757 386.546 448.757H377.226C373.307 448.757 369.458 449.544 365.558 449.886C359.698 450.402 353.689 449.873 347.877 451.368C343.73 452.435 339.535 452.655 335.382 453.689C331.81 454.578 328.337 456.3 324.709 456.3C321.391 456.3 316.224 457.838 314.825 450.982C314.234 448.085 314.723 444.762 313.961 442.055C312.543 437.019 309.553 432.422 307.178 428.712C304.664 424.786 302.027 421.256 299.004 418.56C295.787 415.69 292.729 415.691 289.209 415.691H289.046C282.047 415.691 275.103 409.965 268.358 407.28C260.412 404.116 252.102 401.171 244.419 396.451C240.059 393.771 235.534 389.653 231.605 385.428C227.816 381.355 224.466 377.227 222.529 370.185C220.479 362.729 219.356 354.962 216.272 348.431C213.88 343.362 211.48 338.297 209.189 333.089C206.401 326.755 204.869 319.45 203.214 312.108C201.115 302.8 199.027 293.499 197.164 284.037Z" fill="url(#paint2_linear_581_555)"/>
<path fill-rule="evenodd" clip-rule="evenodd" d="M145.685 411.892C141.609 409.741 137.532 407.59 133.426 405.533C130.834 404.235 128.752 402.18 126.716 400.17C124.848 398.326 123.018 396.521 120.867 395.369C119.507 394.643 118.506 393.093 117.522 391.569C117.289 391.207 117.056 390.848 116.82 390.501C116.483 390.006 115.878 389.051 115.402 388.216C115.402 387.618 115.38 387.065 114.955 386.752C114.439 386.374 114.825 387.206 115.402 388.216V388.414C115.402 395.236 115.554 402.738 115.901 409.63C116.466 420.839 119.846 430.409 123.245 440.029C124.464 443.479 125.684 446.934 126.779 450.475C127.541 452.942 128.243 455.552 128.954 458.196C130.77 464.945 132.644 471.915 135.738 477.293C138.992 482.948 144.415 485.942 149.158 488.562C149.687 488.854 150.207 489.141 150.715 489.428C158.21 493.645 164.387 499.956 170.831 506.541C171.661 507.39 172.495 508.243 173.338 509.096C175.496 511.283 177.766 513.296 180.04 515.311C184.585 519.34 189.148 523.385 192.886 528.882C197.972 536.361 201.794 547.531 204.526 557.206C207.591 568.06 211.291 579.822 218.347 586.112C223.376 590.595 228.798 592.983 234.245 595.381C238.03 597.047 241.829 598.72 245.515 601.105C247.454 602.36 249.38 603.706 251.31 605.055C256.541 608.711 261.801 612.387 267.428 614.322C272.58 616.092 278.355 615.752 283.91 615.424C286.059 615.296 288.174 615.172 290.208 615.172H356.552C358.711 615.172 360.984 615.317 363.303 615.466C369.185 615.843 375.362 616.24 380.726 614.322C385.698 612.543 390.898 609.231 395.545 606.129C395.928 605.873 400.788 602.219 399.564 601.994C397.073 601.536 394.516 601.626 391.959 601.716C389.779 601.793 387.598 601.87 385.455 601.608C374.243 600.234 363.121 598.733 351.928 597.086C339.071 595.195 328.171 575.787 322.448 560.376C317.542 547.166 312.731 533.553 308.391 519.916C307.928 518.462 307.473 517.005 307.018 515.548C305.341 510.181 303.669 504.827 301.638 499.706C299.312 493.842 296.237 489.373 293.041 484.727C292.563 484.032 292.083 483.334 291.601 482.626C283.8 471.153 273.948 463.804 263.749 457.74C253.899 451.883 243.506 449.665 233.103 447.445C225.477 445.818 217.843 444.188 210.412 441.124C204.419 438.652 198.49 435.734 192.568 432.819C189.539 431.329 186.512 429.839 183.479 428.41C179.205 426.396 174.851 424.8 170.498 423.205C165.402 421.338 160.306 419.472 155.34 416.933C152.112 415.283 148.898 413.588 145.685 411.892ZM173.158 453.873C175.898 457.449 181.314 462.457 184.715 464C187.429 465.231 190.117 466.579 192.805 467.927C196.031 469.545 199.257 471.162 202.529 472.579C212.696 476.98 223.114 480.365 233.494 483.739C236.455 484.7 239.413 485.661 242.362 486.644C244.936 487.504 247.763 488.111 250.671 488.737C259.81 490.7 269.762 492.839 275.258 503.493C278.162 509.122 280.617 514.851 282.773 521.192C283.15 522.303 283.684 523.57 284.247 524.908C285.581 528.076 287.082 531.64 287.082 534.484C287.082 538.371 280.507 536.76 279.146 536.108C277.056 535.106 275.057 533.698 273.053 532.287C271.158 530.952 269.258 529.614 267.27 528.611C261.977 525.941 257.124 522.749 252.084 519.259C247.795 516.292 242.892 514.837 238.072 513.406C235.78 512.725 233.507 512.051 231.327 511.222C228.666 510.21 226.044 509.012 223.422 507.815C220.032 506.266 216.642 504.717 213.171 503.57C204.201 500.609 194.989 496.823 187.762 488.037C181.113 479.949 173.87 467.437 173.158 453.873Z" fill="url(#paint3_linear_581_555)"/>
<path d="M17.6328 210.632C22.2734 200.712 20.302 181.786 26.1979 173.989C32.0937 166.194 31.8779 186.509 34.0988 185.326L34.1062 185.322C37.0118 183.773 39.19 182.613 42.2556 185.446C46.7671 189.617 51.1185 195.032 55.9359 197.413C59.6504 199.249 71.9356 203.816 71.2123 214.216C70.5306 224.017 70.1532 234.583 68.7338 243.965C67.4678 252.33 64.3608 283.154 55.6039 275.976C52.0737 273.082 49.3161 265.822 47.0162 260.389C44.3184 254.016 39.5501 248.578 35.565 244.862C27.5299 237.371 22.5356 233.621 17.8886 219.197C16.6262 215.279 16.0947 213.92 17.6328 210.632Z" fill="url(#paint4_linear_581_555)"/>
<path d="M399.475 263.112C389.367 260.634 380.909 252.757 371.287 247.91C361.298 242.878 351.292 240.568 340.874 239.42C335.229 238.799 330.47 238.071 324.917 239.924C321.859 240.944 319.178 242.575 316.285 244.104C315.083 244.74 313.846 244.58 312.693 245.084C309.832 246.335 309.418 255.097 308.706 258.165C306.213 268.91 300.377 277.96 296.437 287.722C292.544 297.368 289.582 306.779 287.258 317.342C285.929 323.386 280.193 326.185 277.885 331.605C276.92 333.872 278.397 327.311 278.475 326.796C279.095 322.741 278.814 318.25 278.463 314.085C277.837 306.649 277.725 298.832 276.233 291.517C273.714 279.161 269.035 268.378 265.094 256.803C263.204 251.255 260.207 246.33 258.319 240.778C256.612 235.756 253.803 231.4 252.672 226.121C252.064 223.281 250.869 220.652 251.519 217.698C252.066 215.213 254.31 216.979 255.741 217.659C259.745 219.565 263.066 222.103 266.359 225.849C267.921 227.625 269.115 229.74 270.61 231.616C272.171 233.578 274.071 234.815 275.687 236.657C277.483 238.707 279.595 241.134 280.931 243.729C281.801 245.418 282.98 250.672 284.449 251.484C287.958 253.424 290.067 247.744 290.932 244.2C291.679 241.137 293.1 238.519 294.695 236.166C296.671 233.254 297.912 229.545 299.902 226.61C302.945 222.126 306.966 220.382 310.463 216.915C315.001 212.418 321.452 211.286 327.153 211.064C328.828 210.997 332.495 211.076 332.978 208.33C333.54 205.14 327.74 203.455 326.209 202.805C322.306 201.149 317.218 202.803 313.233 202.647C309.431 202.498 305.712 203.289 301.917 203.341C295.075 203.438 288.068 201.697 281.22 201.877C280.001 201.909 272.121 202.103 272.865 199.308C273.496 196.93 276.898 194.138 278.403 192.728C281.061 190.237 283.66 186.921 285.656 183.506C287.527 180.304 291.008 177.172 293.694 175.201C296.309 173.28 298.712 171.399 301.79 170.766C310.66 168.937 319.27 174.731 327.663 178.726C337.841 183.57 348.013 189.237 358.708 190.172C364.956 190.718 371.104 190.05 377.356 191.429C381.741 192.397 385.808 192.327 390.167 192.341C397.048 192.364 401.664 186.523 407.732 183.963C410.537 182.78 413.253 180.8 416.266 180.343C419.648 179.829 416.569 187.143 415.966 188.874C412.226 199.613 405.694 206.635 400.172 215.41C396.713 220.907 397.056 227.706 400.178 233.975C404.288 242.228 407.423 250.872 411.904 258.854C413.219 261.196 414.52 263.97 415.754 266.447C416.354 267.653 417.51 270.672 417.382 272.151C417.095 275.461 416.252 274.461 413.804 273.296C411.795 272.34 410.789 271.027 409.126 269.469C407.016 267.493 400.734 263.923 399.475 263.112Z" fill="url(#paint5_linear_581_555)"/>
<path d="M212.947 41.493C208.958 41.5644 205.309 41.6445 201.418 43.0343C203.25 44.5314 206.621 48.1967 208.133 50.3418C210.316 53.4374 213.759 55.4911 216.44 57.535C218.398 59.0281 220.299 60.8485 222.185 62.5303C224.13 64.2643 226.256 64.7724 228.395 65.7558C238.505 70.4023 247.984 61.9888 258.168 63.9861C264.058 65.1411 268.995 69.0693 274.627 71.1793C279.884 73.1487 285.264 74.8572 290.387 77.5162C295.633 80.2395 300.271 83.111 305.933 83.111C309.763 83.111 313.625 82.5972 317.403 82.5972C322.896 82.5972 327.732 77.4351 332.988 75.6894C334.788 75.092 337.029 75.3386 338.792 76.1461C340.654 76.9992 340.562 78.9621 341.004 81.2842C341.892 85.9486 344.285 90.1166 346.031 94.1292C347.797 98.1871 347.857 103.015 349.194 107.231C350.574 111.579 351.746 116.121 353.465 120.219C354.47 122.615 355.77 124.813 356.338 127.555C356.603 128.84 356.549 130.869 357.579 129.353C359.279 126.852 360.798 124.173 362.47 121.646C363.736 119.734 366.313 117.238 366.313 114.453C366.313 110.617 366.05 107.058 365.692 103.264C365.095 96.925 364.052 91.3681 362.043 85.68C360.496 81.2972 357.497 77.8499 356.338 73.2345C355.244 68.8832 356.71 62.4083 357.657 58.3342C359.127 52.0171 362.148 47.3695 365.614 43.2627C366.177 42.5971 372.111 34.8134 369.612 34.8134C367.095 34.8134 364.479 35.419 362.005 36.1265C355.494 37.9885 348.917 38.9997 342.402 40.7794C333.016 43.3428 323.419 45.5199 313.91 46.8878C309.019 47.5916 304.073 48.1796 299.198 46.9164C293.96 45.5593 288.673 44.0717 283.458 42.5205C279.355 41.3001 275.328 40.2248 271.172 39.4377C267.847 38.808 264.532 39.0626 261.196 38.6671C251.404 37.5056 241.62 36.1987 231.812 37.668C225.504 38.6129 219.299 41.379 212.947 41.493Z" fill="url(#paint6_linear_581_555)"/>
<path d="M372.942 291.431C377.481 290.554 382.008 290.934 386.529 289.666L409.17 282.929C409.189 284.776 407.737 287.633 406.847 288.866C404.917 291.541 404.613 296.879 403.484 300.332C402.153 304.409 401.072 308.392 399.283 312.018C396.911 316.826 392.04 319.996 388.742 323.17C383.806 327.917 378.609 332.028 373.711 336.849C368.232 342.241 362.627 348.399 356.464 351.968C344.852 358.696 334.518 356.602 322.429 354.347C315.754 353.102 309.694 352.527 302.967 353.308C299.853 353.669 302.514 350.822 303.644 348.432C309.341 336.389 314.651 323.312 323.143 315.144C329.609 308.924 336.07 305.426 343.343 301.673C349.306 298.595 355.651 295.216 361.939 294.021C365.626 293.321 369.261 292.143 372.942 291.431Z" fill="url(#paint7_linear_581_555)"/>
<path d="M91.0645 91.3885C73.5544 89.4888 66.7495 55.6655 66.7495 55.6655C66.7495 55.6655 91.7047 60.0879 94.4326 62.8549C99.0556 67.5437 103.865 69.349 109.326 71.0127C116.749 73.2742 123.968 77.0287 131.488 78.5745C139.616 80.2455 147.798 82.052 155.777 84.9442C159.628 86.3402 163.412 88.9646 167.377 89.4888C172.098 90.1129 177.684 89.3392 182.397 88.6321C187.744 87.8296 193.24 88.1497 198.581 88.8183C203.036 89.3759 207.608 89.4066 212.081 89.6751C216.577 89.9449 220.966 91.0867 225.479 90.9789C231.475 90.8355 237.32 88.9674 243.387 88.9674C247.313 88.9674 249.124 91.5786 252.58 93.5118C260.672 98.037 268.25 104.295 276.388 109.082C280.926 111.752 284.966 114.709 289.205 118.171C293.659 121.811 299.568 123.214 304.502 124.132C313.129 125.736 321.357 127.973 329.779 131.208C331.882 132.017 337.166 132.063 335.808 136.722C333.89 143.305 328.891 141.457 324.714 142.235C314.682 144.105 303.442 145.943 293.459 142.273C282.991 138.423 271.821 140.441 261.217 138.213C257.365 137.403 253.472 136.938 249.643 135.902C244.249 134.443 239.21 131.821 233.889 129.943C229.949 128.552 225.883 127.722 221.909 126.553C219.742 125.916 217.33 124.906 215.095 125.324C212.249 125.855 213.603 127.596 214.766 129.57C216.808 133.036 219.53 136.803 220.92 140.894C222.882 146.662 223.761 153.691 224.922 159.892C226.393 167.744 228.111 175.137 228.899 183.247C229.67 191.185 230.361 198.922 231.508 206.753C234.242 225.427 237.223 243.756 240.879 262.106C243.014 272.822 245.159 283.667 245.513 294.887C245.569 296.649 245.942 297.362 245.21 296.451C244.212 295.209 242.92 294.538 241.892 293.322C238.378 289.169 235.284 284.329 231.836 280.061C228.341 275.732 224.717 271.925 221.377 267.285C204.682 244.095 205.115 207.988 202.001 176.84C201.493 171.773 201.74 166.631 201.216 161.531C200.576 155.326 199.542 149.397 197.897 143.613C196.083 137.232 193.802 131.214 189.818 127.186C185.566 122.888 181.22 123.22 176.242 123.163C167.807 123.067 160.41 119.235 152.535 115.117C143.108 110.187 133.49 106.107 123.914 101.856C113.145 97.074 102.332 92.6111 91.0645 91.3885Z" fill="url(#paint8_linear_581_555)"/>
<path d="M-0.000244141 154.196V63.9219C1.36887 59.6395 2.38326 55.0458 3.42096 50.3464C4.89771 43.6587 6.42166 36.7573 9.08239 30.2353L18.8697 15.1826C19.7503 17.3259 19.5082 32.1325 19.2588 47.3909C18.9863 64.0596 18.705 81.2676 19.8687 83.0946C21.0671 84.9756 25.2114 73.6529 29.8227 61.0543C33.7891 50.2173 38.1011 38.4366 41.1807 33.3033L55.7217 17.9578C53.3241 29.007 52.6722 40.1632 52.0151 51.4078C51.3633 62.5653 50.7062 73.8096 48.3335 85.122C46.3358 91.6508 43.9456 97.7192 41.546 103.811C39.934 107.904 38.3177 112.007 36.8134 116.268C35.95 118.714 35.1632 121.2 34.3835 123.664C31.8708 131.603 29.4315 139.311 24.7414 144.675C20.7511 149.241 13.003 151.942 7.90967 152.69C5.28148 153.076 2.64174 153.587 -0.000244141 154.196Z" fill="url(#paint9_linear_581_555)"/>
<path d="M-0.000244141 455.291V230.223C0.369055 230.672 0.716859 231.126 1.0337 231.593C1.68913 232.556 2.34609 233.495 2.9979 234.428C5.40648 237.873 7.74475 241.217 9.67593 245.32C12.0737 250.413 13.028 257.754 13.8989 264.453C14.2097 266.844 14.5098 269.153 14.8612 271.248C15.8028 276.865 16.5889 282.529 17.3748 288.192C18.2565 294.544 19.138 300.896 20.2386 307.176C20.6315 309.418 21.0426 311.678 21.4561 313.952C23.4931 325.148 25.591 336.68 25.8849 348.131C26.5389 373.623 20.0483 392.706 12.5111 414.868C12.373 415.274 12.2345 415.681 12.0957 416.089C7.83736 428.614 4.47592 440.248 2.03235 453.824C1.42039 457.225 0.74789 456.866 -0.000244141 455.291Z" fill="url(#paint10_linear_581_555)"/>
<path d="M-0.000244141 648.448V541.106C1.03173 538.893 2.0431 536.664 3.03247 534.419C6.30466 526.99 9.21568 518.944 11.3882 510.68C13.4171 502.96 15.0552 495.727 16.6441 488.713C20.1724 473.136 23.458 458.629 30.2426 442.236C33.3775 434.661 36.8373 426.67 40.7966 420.005C42.8907 416.481 44.8304 412.817 46.768 409.156C49.4288 404.13 52.0854 399.111 55.1321 394.472L79.1588 357.891C79.7051 357.059 80.2682 356.075 80.8511 355.058C82.174 352.749 83.5986 350.261 85.1594 348.964C85.564 348.627 85.9906 348.288 86.4272 347.942C88.1634 346.561 90.0576 345.057 91.3532 343.085C92.0148 342.076 92.5911 342.492 93.0697 343.708C93.3974 344.542 92.2075 346.791 91.521 348.088C91.3434 348.424 91.1987 348.697 91.1241 348.864C88.5987 354.499 86.6813 360.569 84.7554 366.667C83.8531 369.525 82.9489 372.387 81.9795 375.214C78.9406 384.075 74.4581 391.323 69.9675 398.584C67.7594 402.155 65.5492 405.728 63.5079 409.499C55.2603 424.732 50.5984 442.999 47.0957 461.639C46.264 466.065 45.1951 470.403 44.1268 474.737C42.8323 479.99 41.5386 485.24 40.6685 490.64C39.6024 497.257 38.7968 503.972 37.9914 510.685C37.4254 515.402 36.8596 520.119 36.2035 524.8C35.2961 531.274 34.184 537.675 33.0722 544.075C31.8457 551.136 30.6194 558.193 29.6681 565.349C29.3154 568.001 29.0554 570.697 28.795 573.396C28.3748 577.755 27.9538 582.119 27.1412 586.323C25.9225 592.627 23.7908 598.463 21.5235 604.067L15.7685 616.066C14.4251 620.194 12.2679 623.734 10.1557 627.198C9.49993 628.275 8.84841 629.343 8.22696 630.42C6.63585 633.177 5.36908 636.318 4.10411 639.454C2.8412 642.584 1.58007 645.711 -0.000244141 648.448Z" fill="url(#paint11_linear_581_555)"/>
<path d="M147.758 653H126.368C126.391 652.561 126.412 652.125 126.432 651.694C126.686 646.406 127.111 641.113 127.537 635.817C128.191 627.688 128.844 619.555 128.874 611.426C128.909 602.292 129.111 592.942 130.034 583.89C130.522 579.112 131.797 574.636 133.067 570.179C133.692 567.985 134.316 565.796 134.845 563.576C135.603 560.388 136.661 560.731 138.594 562.668C142.984 567.07 147.08 571.862 151.209 576.694C152.206 577.859 153.203 579.026 154.207 580.191C158.509 585.178 163.123 589.31 167.773 593.475C168.537 594.16 169.303 594.845 170.068 595.536C171.877 597.167 173.709 598.738 175.541 600.309C177.276 601.797 179.01 603.285 180.724 604.823C182.184 606.133 183.542 607.65 184.899 609.167C186.314 610.748 187.729 612.329 189.258 613.675C195.47 619.139 201.678 624.239 208.327 628.476C212.492 631.131 216.456 634.187 220.437 637.256C222.463 638.818 224.493 640.383 226.554 641.899C230.42 644.742 234.318 646.931 238.542 648.139C238.844 648.225 239.161 648.313 239.49 648.403C241.781 649.035 244.646 649.825 246.51 651.368C247 651.772 247.346 652.343 247.612 653H189.025C187.409 651.503 185.804 649.9 184.177 648.139C180.39 644.04 176.131 640.588 171.967 637.365C170.723 636.401 169.407 635.582 168.09 634.762C166.2 633.585 164.307 632.407 162.618 630.798C160.345 628.63 158.112 626.608 155.539 625.284C153.695 624.335 152.689 625.201 152.062 627.968C151.226 631.653 150.712 635.618 150.202 639.549C149.918 641.74 149.635 643.919 149.298 646.035C148.919 648.422 148.369 650.725 147.758 653Z" fill="url(#paint12_linear_581_555)"/>
<path d="M441.084 653H396.208C396.892 645.669 398.144 637.946 399.729 631.347C399.871 630.755 400.013 630.162 400.155 629.568C402.067 621.574 404.02 613.406 407.249 606.32C410.379 599.453 413.984 593.665 417.881 587.73C427.36 573.3 436.259 557.692 444 541.104V648.447C443.776 648.834 443.547 649.211 443.311 649.581C442.58 650.722 441.838 651.864 441.084 653Z" fill="url(#paint13_linear_581_555)"/>
<path d="M444 230.223V455.293C443.705 454.672 443.399 453.864 443.08 453.023C442.712 452.05 442.325 451.032 441.922 450.21C440.791 447.906 439.638 445.607 438.484 443.304C431.2 428.773 423.802 414.015 420.835 396.318C418.217 380.706 418.07 366.378 418.07 350.335C418.07 349.727 418.069 349.117 418.069 348.506C418.064 335.885 418.06 322.54 419.836 310.227C420.389 306.392 420.825 302.523 421.261 298.658C421.685 294.896 422.108 291.135 422.64 287.405C423.216 283.371 424.003 279.453 424.79 275.537C425.823 270.401 426.855 265.27 427.402 259.894L431.897 212.273C433.582 213.1 435.496 217.291 436.199 219.617C437.178 222.856 439.469 225.293 441.673 227.639C442.483 228.5 443.282 229.351 444 230.223Z" fill="url(#paint14_linear_581_555)"/>
<path d="M444 154.195C435.401 156.175 426.778 159.188 418.452 162.328C416.694 162.991 415.068 163.75 413.505 164.479C408.429 166.846 404.013 168.906 397.896 166.387C397.376 166.173 396.344 165.804 394.974 165.317C386.169 162.18 363.37 154.058 372.234 149.545C376.993 147.122 380.608 141.962 382.995 135.442C383.494 134.083 383.969 132.751 384.437 131.443C387.513 122.84 390.178 115.381 395.826 108.963C402.679 101.176 411.238 95.7423 419.645 90.4057C424.146 87.5486 428.603 84.719 432.731 81.5707C438.554 77.1306 441.754 70.9439 444 63.9195V154.195Z" fill="url(#paint15_linear_581_555)"/>
<path d="M441.087 0C435.248 8.79344 428.676 17.2733 421.219 22.7019C420.145 23.4846 419.109 24.3334 418.078 25.1782C416.16 26.7496 414.26 28.307 412.157 29.3981C411.658 29.6569 411.12 29.9227 410.561 30.199C408.151 31.39 405.34 32.7797 403.48 34.6733C402.095 36.0822 400.682 37.4463 399.254 38.7575C399.153 38.8498 398.869 39.1681 398.5 39.5833C397.362 40.8619 395.408 43.0584 395.458 42.3946C395.792 38.0516 396.055 34.1682 395.624 29.7163C394.962 22.8993 395.296 15.9866 395.625 9.14897C395.668 8.2627 395.711 7.37767 395.751 6.49428C395.847 4.39331 396.002 2.2146 396.209 0H441.087Z" fill="url(#paint16_linear_581_555)"/>
<path d="M247.61 0H189.02C192.785 3.4869 196.609 6.38578 200.902 9.29201C205.275 12.2537 209.795 14.4233 214.321 16.5961C217.366 18.0577 220.414 19.5208 223.423 21.2273C229.161 24.4829 234.192 26.3672 240.418 25.1816C241.695 24.9385 256.181 21.3814 255.76 19.4497C255.432 17.9427 254.396 16.5338 253.383 15.1567C252.633 14.1365 251.895 13.1338 251.468 12.1217C250.162 9.02648 248.967 5.56171 248.212 2.10901C248.05 1.36939 247.869 0.642572 247.61 0Z" fill="url(#paint17_linear_581_555)"/>
<path d="M147.76 0H126.368C126.207 3.09374 125.995 6.37139 125.775 9.75113C124.971 22.1461 124.078 35.9143 125.323 47.0208C126.637 47.0208 127.366 43.6485 127.924 41.0644C128.106 40.2211 128.271 39.4617 128.431 38.931C129.374 35.8113 131.666 32.9728 133.63 30.5421C134.16 29.8856 134.666 29.2588 135.115 28.6644C135.729 27.8521 136.371 27.0454 137.019 26.2298C140.113 22.3389 143.365 18.2483 144.514 12.4119C145.107 9.39806 145.929 6.50903 146.748 3.62567C147.091 2.41903 147.434 1.21339 147.76 0Z" fill="url(#paint18_linear_581_555)"/>
<path d="M73.567 166.896C77.6515 177.141 81.7397 187.394 84.1789 198.774C86.047 207.491 87.1486 217.196 88.0268 226.237C88.8843 235.064 90.9187 243.313 93.5525 251.341C94.2407 253.441 94.8801 255.683 95.5283 257.96C97.1889 263.784 98.9116 269.831 101.692 274.269C104.255 278.358 107.041 282.19 109.827 286.023C112.08 289.122 114.333 292.22 116.467 295.455C118.631 298.734 120.746 302.11 122.861 305.489C130.07 317.003 137.301 328.552 146.634 336.449C149.949 339.253 153.538 340.879 157.14 342.513C158.525 343.14 159.912 343.769 161.286 344.467C165.007 346.354 168.491 349.424 171.77 352.592C172.666 353.458 173.662 354.113 174.658 354.767C175.819 355.53 176.979 356.292 177.983 357.391L178.06 357.49C178.994 358.693 179.704 359.629 179.947 359.952C179.774 359.722 179.349 359.151 178.602 358.143C178.404 357.875 178.198 357.626 177.983 357.391C177.079 356.23 176.168 355.09 175.262 353.955C171.089 348.733 166.984 343.595 163.852 336.739C160.023 328.357 157.34 317.048 157.34 306.882C157.34 298.501 160.676 290.628 163.613 283.7L163.704 283.483C167.087 275.499 170.135 266.897 172.338 258.052C176.149 242.745 179.371 225.725 180.28 209.404C180.532 204.89 180.478 200.304 180.424 195.742C180.402 193.832 180.378 191.926 180.378 190.032C180.378 185.204 180.026 179.154 177.69 175.376C172.44 166.882 164.212 163.36 156.906 160.233C156.321 159.982 155.741 159.734 155.17 159.486C155.052 159.435 154.934 159.383 154.816 159.332C156.484 161.479 157.734 163.93 157.734 166.841C157.734 171.482 155.728 174.976 153.731 178.453C152.607 180.411 151.487 182.362 150.73 184.509C149.483 188.044 148.159 191.513 146.835 194.98C145.525 198.413 144.216 201.843 142.984 205.332C142.183 207.602 141.037 209.518 139.888 211.437C138.992 212.935 138.095 214.436 137.36 216.106C135.522 220.284 135.527 224.29 135.534 229.011C135.534 229.29 135.534 229.571 135.534 229.856C135.534 233.43 135.423 236.985 135.312 240.536C135.201 244.083 135.09 247.628 135.09 251.187V268.927C135.09 269.221 135.092 269.497 135.094 269.748C135.105 271.84 135.108 272.373 134.179 269.979C133.63 268.568 133.055 267.158 132.477 265.74C130.367 260.561 128.209 255.268 127.123 249.409C126.158 244.204 126.205 238.859 126.252 233.518C126.297 228.445 126.343 223.376 125.521 218.428C123.401 205.678 118.212 194.973 113.095 184.415C111.71 181.557 110.33 178.712 109.018 175.838C107.594 172.72 106.178 169.559 104.758 166.39C101.228 158.508 97.6728 150.57 93.8979 143.08C92.542 140.39 91.1327 137.838 89.6373 135.462C87.4182 133.92 84.8179 133.169 82.3377 132.453C81.6819 132.264 81.0345 132.077 80.4049 131.878C68.9585 125.791 63.4049 119.237 61.0639 116.474C60.0148 115.235 59.6108 114.759 59.6108 115.427C60.0851 126.123 63.0946 137.296 66.1475 146.897C68.3283 153.757 70.947 160.324 73.567 166.896Z" fill="url(#paint19_linear_581_555)"/>
<defs>
<linearGradient id="paint0_linear_581_555" x1="82.8286" y1="432.721" x2="82.8286" y2="610.766" gradientUnits="userSpaceOnUse">
<stop stop-color="#393939"/>
<stop offset="1" stop-color="#180150"/>
</linearGradient>
<linearGradient id="paint1_linear_581_555" x1="380.192" y1="466.895" x2="380.192" y2="557.009" gradientUnits="userSpaceOnUse">
<stop stop-color="#393939"/>
<stop offset="1" stop-color="#180150"/>
</linearGradient>
<linearGradient id="paint2_linear_581_555" x1="300.925" y1="263.701" x2="300.925" y2="456.447" gradientUnits="userSpaceOnUse">
<stop stop-color="#393939"/>
<stop offset="1" stop-color="#180150"/>
</linearGradient>
<linearGradient id="paint3_linear_581_555" x1="257.237" y1="386.659" x2="257.237" y2="615.779" gradientUnits="userSpaceOnUse">
<stop stop-color="#393939"/>
<stop offset="1" stop-color="#180150"/>
</linearGradient>
<linearGradient id="paint4_linear_581_555" x1="43.9666" y1="172.203" x2="43.9666" y2="277.051" gradientUnits="userSpaceOnUse">
<stop stop-color="#393939"/>
<stop offset="1" stop-color="#180150"/>
</linearGradient>
<linearGradient id="paint5_linear_581_555" x1="334.579" y1="170.419" x2="334.579" y2="332.08" gradientUnits="userSpaceOnUse">
<stop stop-color="#393939"/>
<stop offset="1" stop-color="#180150"/>
</linearGradient>
<linearGradient id="paint6_linear_581_555" x1="285.821" y1="34.8134" x2="285.821" y2="129.892" gradientUnits="userSpaceOnUse">
<stop stop-color="#393939"/>
<stop offset="1" stop-color="#180150"/>
</linearGradient>
<linearGradient id="paint7_linear_581_555" x1="355.338" y1="282.929" x2="355.338" y2="356.527" gradientUnits="userSpaceOnUse">
<stop stop-color="#393939"/>
<stop offset="1" stop-color="#180150"/>
</linearGradient>
<linearGradient id="paint8_linear_581_555" x1="201.389" y1="55.6655" x2="201.389" y2="296.848" gradientUnits="userSpaceOnUse">
<stop stop-color="#393939"/>
<stop offset="1" stop-color="#180150"/>
</linearGradient>
<linearGradient id="paint9_linear_581_555" x1="27.8608" y1="15.1826" x2="27.8608" y2="154.196" gradientUnits="userSpaceOnUse">
<stop stop-color="#393939"/>
<stop offset="1" stop-color="#180150"/>
</linearGradient>
<linearGradient id="paint10_linear_581_555" x1="12.9651" y1="230.223" x2="12.9651" y2="456.447" gradientUnits="userSpaceOnUse">
<stop stop-color="#393939"/>
<stop offset="1" stop-color="#180150"/>
</linearGradient>
<linearGradient id="paint11_linear_581_555" x1="46.5627" y1="342.518" x2="46.5627" y2="648.448" gradientUnits="userSpaceOnUse">
<stop stop-color="#393939"/>
<stop offset="1" stop-color="#180150"/>
</linearGradient>
<linearGradient id="paint12_linear_581_555" x1="186.99" y1="561.194" x2="186.99" y2="653" gradientUnits="userSpaceOnUse">
<stop stop-color="#393939"/>
<stop offset="1" stop-color="#180150"/>
</linearGradient>
<linearGradient id="paint13_linear_581_555" x1="420.104" y1="541.104" x2="420.104" y2="653" gradientUnits="userSpaceOnUse">
<stop stop-color="#393939"/>
<stop offset="1" stop-color="#180150"/>
</linearGradient>
<linearGradient id="paint14_linear_581_555" x1="431.034" y1="212.273" x2="431.034" y2="455.293" gradientUnits="userSpaceOnUse">
<stop stop-color="#393939"/>
<stop offset="1" stop-color="#180150"/>
</linearGradient>
<linearGradient id="paint15_linear_581_555" x1="407.112" y1="63.9195" x2="407.112" y2="167.539" gradientUnits="userSpaceOnUse">
<stop stop-color="#393939"/>
<stop offset="1" stop-color="#180150"/>
</linearGradient>
<linearGradient id="paint16_linear_581_555" x1="418.165" y1="0" x2="418.165" y2="42.5168" gradientUnits="userSpaceOnUse">
<stop stop-color="#393939"/>
<stop offset="1" stop-color="#180150"/>
</linearGradient>
<linearGradient id="paint17_linear_581_555" x1="222.394" y1="0" x2="222.394" y2="25.5384" gradientUnits="userSpaceOnUse">
<stop stop-color="#393939"/>
<stop offset="1" stop-color="#180150"/>
</linearGradient>
<linearGradient id="paint18_linear_581_555" x1="136.233" y1="0" x2="136.233" y2="47.0208" gradientUnits="userSpaceOnUse">
<stop stop-color="#393939"/>
<stop offset="1" stop-color="#180150"/>
</linearGradient>
<linearGradient id="paint19_linear_581_555" x1="120.04" y1="115.124" x2="120.04" y2="359.952" gradientUnits="userSpaceOnUse">
<stop stop-color="#393939"/>
<stop offset="1" stop-color="#180150"/>
</linearGradient>
</defs>
</svg>
