<svg width="115" height="148" viewBox="0 0 115 148" fill="none" xmlns="http://www.w3.org/2000/svg">
<path d="M32.5468 147.394L62.6609 96.3456L85.0862 96.3456L85.0862 147.394H114.56L114.56 0.340942L54.7586 0.340942C40.9475 0.340942 29.2008 5.10266 19.5188 14.6261C9.83673 24.1495 4.9957 35.6337 4.9957 49.0785C4.9957 58.1818 7.62979 66.6549 12.898 74.4977C18.1662 82.2005 25.1429 88.0126 33.8283 91.934L0.724197 147.394H32.5468ZM85.0862 27.4407L85.0862 70.9264L54.7586 70.9264C49.2057 70.9264 44.4358 68.8257 40.4491 64.6242C36.4624 60.2826 34.469 55.1007 34.469 49.0785C34.469 43.0564 36.4624 37.9445 40.4491 33.743C44.4358 29.5415 49.2057 27.4407 54.7586 27.4407L85.0862 27.4407Z" fill="#F6F0FC"/>
</svg>
